<svg xmlns="http://www.w3.org/2000/svg" xmlns:svg="http://www.w3.org/2000/svg" id="svg2" width="8in" height="8in" version="1.1" viewBox="0 0 720 720"><metadata id="metadata7"/><g id="layer3"><path style="fill:#fff;fill-opacity:1;fill-rule:evenodd;stroke:none;stroke-width:1px;stroke-linecap:butt;stroke-linejoin:miter;stroke-opacity:1" id="path4162" d="m 194.85572,269.99999 194.85572,-112.5 194.85572,112.5 0,225.00001 L 389.71144,607.5 194.85572,495 Z"/></g><g id="layer2"><path style="fill:none;fill-rule:evenodd;stroke:#3c31ff;stroke-width:4.5;stroke-linecap:round;stroke-linejoin:miter;stroke-miterlimit:4;stroke-dasharray:none;stroke-opacity:1" id="path4211-5" d="m 301.36994,277.30273 38.97114,22.5"/><path style="fill:none;fill-rule:evenodd;stroke:#3c31ff;stroke-width:4.5;stroke-linecap:round;stroke-linejoin:miter;stroke-miterlimit:4;stroke-dasharray:none;stroke-opacity:1" id="path4211-8" d="m 279.14321,243.10523 38.97114,22.5"/><path style="fill:none;fill-rule:evenodd;stroke:#3c31ff;stroke-width:4.5;stroke-linecap:round;stroke-linejoin:miter;stroke-miterlimit:4;stroke-dasharray:none;stroke-opacity:1" id="path4211-3" d="m 222.59274,270.81345 38.97114,22.5"/><path style="fill:none;fill-rule:evenodd;stroke:#3c31ff;stroke-width:4.5;stroke-linecap:butt;stroke-linejoin:miter;stroke-miterlimit:4;stroke-dasharray:none;stroke-opacity:1" id="path4215-5" d="m 203.47741,293.53211 58.45671,33.75"/><path style="fill:none;fill-rule:evenodd;stroke:#3c31ff;stroke-width:4.5;stroke-linecap:round;stroke-linejoin:miter;stroke-miterlimit:4;stroke-dasharray:none;stroke-opacity:1" id="path4215-4" d="m 203.93189,333.06357 58.45671,33.75"/><path style="fill:none;fill-rule:evenodd;stroke:#3c31ff;stroke-width:4.5;stroke-linecap:butt;stroke-linejoin:miter;stroke-miterlimit:4;stroke-dasharray:none;stroke-opacity:1" id="path4215-9" d="m 203.77131,366.85338 58.45671,33.75"/><path style="fill:none;fill-rule:evenodd;stroke:#3c31ff;stroke-width:4.5;stroke-linecap:round;stroke-linejoin:miter;stroke-miterlimit:4;stroke-dasharray:none;stroke-opacity:1" id="path4211-6" d="m 279.32193,316.39094 38.97114,22.5"/><path style="fill:none;fill-rule:evenodd;stroke:#5b53ff;stroke-width:4.5;stroke-linecap:round;stroke-linejoin:miter;stroke-miterlimit:4;stroke-dasharray:none;stroke-opacity:1" id="path4294-9" d="m 492.44486,355.24999 38.97114,-22.5"/><path style="fill:none;fill-rule:evenodd;stroke:#5b53ff;stroke-width:4.5;stroke-linecap:round;stroke-linejoin:miter;stroke-miterlimit:4;stroke-dasharray:none;stroke-opacity:1" id="path4294-1" d="m 518.11298,316.10713 38.97114,-22.5"/><path style="fill:none;fill-rule:evenodd;stroke:#5b53ff;stroke-width:4.5;stroke-linecap:round;stroke-linejoin:miter;stroke-miterlimit:4;stroke-dasharray:none;stroke-opacity:1" id="path4294-5" d="m 523.84157,376.81252 38.97114,-22.5"/><path style="fill:none;fill-rule:evenodd;stroke:#5b53ff;stroke-width:4.5;stroke-linecap:round;stroke-linejoin:miter;stroke-miterlimit:4;stroke-dasharray:none;stroke-opacity:1" id="path4296-6" d="m 524.25462,390.46056 58.45671,-33.75"/><path style="fill:none;fill-rule:evenodd;stroke:#5b53ff;stroke-width:4.5;stroke-linecap:round;stroke-linejoin:miter;stroke-miterlimit:4;stroke-dasharray:none;stroke-opacity:1" id="path4296-4" d="m 466.5075,276.43045 58.45671,-33.75"/><path style="fill:none;fill-rule:evenodd;stroke:#8a84ff;stroke-width:4.5;stroke-linecap:butt;stroke-linejoin:miter;stroke-miterlimit:4;stroke-dasharray:none;stroke-opacity:1" id="path4360-2" d="m 376.32381,507.20754 0,-45"/><path style="fill:none;fill-rule:evenodd;stroke:#8a84ff;stroke-width:4.5;stroke-linecap:round;stroke-linejoin:miter;stroke-miterlimit:4;stroke-dasharray:none;stroke-opacity:1" id="path4362-7" d="m 389.71143,466 0,-67.5"/></g><g id="layer1" transform="translate(0,-332.36215)"><path style="fill:#8a84ff;fill-opacity:1;fill-rule:evenodd;stroke:none;stroke-width:1px;stroke-linecap:butt;stroke-linejoin:miter;stroke-opacity:1" id="path4254" d="M 389.71094,382.5 194.85547,495 389.71094,607.5 584.56641,495 389.71094,382.5 Z m 0,16.03125 157.83398,91.125 -31.5664,18.22461 -110.48438,-63.78711 -31.56641,18.22461 94.70118,54.67578 -31.56836,18.22461 -94.69922,-54.67578 -63.13281,36.45117 -47.34961,-27.33789 157.83203,-91.125 z" transform="translate(0,332.36215)"/><path style="fill:#5b53ff;fill-opacity:1;fill-rule:evenodd;stroke:none;stroke-width:1px;stroke-linecap:butt;stroke-linejoin:miter;stroke-opacity:1" id="path4252" d="m 389.71094,157.5 0,225 194.85547,112.5 0,-225 -194.85547,-112.5 z m 54.7832,63.24414 c 1.58578,0.009 3.22278,0.10474 4.91016,0.28711 10.53065,1.19956 24.69953,7.60712 42.50976,19.22266 17.17416,11.20069 30.00331,21.32319 38.48438,30.36718 8.55173,9.09009 15.6178,19.16823 21.20117,30.23438 5.65403,11.03239 9.89562,23.13789 12.72266,36.31836 l -46.32813,-20.87305 c -1.90825,-7.87092 -5.16,-15.06144 -9.75391,-21.57031 -4.52323,-6.46276 -10.31721,-11.99808 -17.38476,-16.60742 -10.53067,-6.86793 -18.94231,-8.2026 -25.23242,-4.00196 -6.21945,4.16691 -9.32813,15.19288 -9.32813,33.07618 0,19.00099 3.14541,34.62353 9.43555,46.86914 6.36078,12.2917 15.19387,22.12505 26.50195,29.5 5.37135,3.5031 10.49645,5.96658 15.37305,7.39062 4.87662,1.42405 10.45988,2.07236 16.75,1.94336 l 0,-16.52539 -32.12305,-20.94922 0,-36.52539 74.20899,48.39844 0,74.8457 c -14.20577,1.67277 -26.78552,0.93197 -37.74024,-2.2207 -10.88403,-3.18642 -23.81758,-9.66571 -38.80078,-19.4375 -18.44632,-12.03039 -33.50064,-25.4005 -45.16211,-40.11133 -11.59078,-14.66473 -20.60173,-31.11957 -27.0332,-49.36523 -6.3608,-18.19956 -9.54102,-36.40087 -9.54102,-54.60352 0,-19.16066 3.49921,-33.52405 10.4961,-43.0918 6.12226,-8.44164 14.7335,-12.63209 25.83398,-12.57031 z" transform="translate(0,332.36215)"/><path style="fill:#3c31ff;fill-opacity:1;fill-rule:evenodd;stroke:none;stroke-width:1px;stroke-linecap:butt;stroke-linejoin:miter;stroke-opacity:1" id="path4250" d="M 389.71094,157.5 194.85547,270 l 0,225 194.85547,-112.5 0,-225 z m -39.25977,58.69727 c 20.74817,0.28076 20.74805,19.43592 20.74805,31.11132 0,21.04441 -31.56641,54.67383 -31.56641,54.67383 0,0 30.59261,1.76831 31.56641,18.22656 2.15291,36.38636 -16.82553,64.38832 -78.91602,100.23633 l -78.91601,45.5625 0,-182.25 78.91601,-45.5625 c 28.36065,-16.37403 46.52875,-22.15555 58.16797,-21.99804 z m -35.0664,46.79296 c -1.95365,0.0868 -4.35899,0.83437 -7.31836,2.54297 l -47.34961,27.33789 0,36.44922 47.34961,-27.33789 c 15.78316,-9.1125 15.7832,-27.33594 15.7832,-27.33594 0,0 9.8e-4,-12.03223 -8.46484,-11.65625 z m 0.41211,73.29493 c -1.95364,0.0868 -4.35899,0.83439 -7.31836,2.54296 l -47.34961,27.3379 0,36.45117 47.34961,-27.33789 c 15.78331,-9.1125 15.7832,-27.33789 15.7832,-27.33789 0,0 9.6e-4,-12.03224 -8.46484,-11.65625 z" transform="translate(0,332.36215)"/></g></svg>