<svg xmlns="http://www.w3.org/2000/svg" xmlns:svg="http://www.w3.org/2000/svg" id="svg2" width="8in" height="8in" version="1.1" viewBox="0 0 720 720"><metadata id="metadata7"/><g id="layer1" transform="translate(0,-332.36215)"><path style="fill:#8a84ff;fill-rule:evenodd;stroke:none;stroke-width:1px;stroke-linecap:butt;stroke-linejoin:miter;stroke-opacity:1;fill-opacity:1" id="path4254" d="m 389.71144,714.86214 194.85572,112.50001 -194.85572,112.5 -194.85572,-112.5 z"/><path style="fill:#5b53ff;fill-rule:evenodd;stroke:none;stroke-width:1px;stroke-linecap:butt;stroke-linejoin:miter;stroke-opacity:1;fill-opacity:1" id="path4252" d="m 389.71144,489.86214 194.85572,112.5 0,225.00001 -194.85572,-112.50001 z"/><path style="fill:#3c31ff;fill-rule:evenodd;stroke:none;stroke-width:1px;stroke-linecap:butt;stroke-linejoin:miter;stroke-opacity:1;fill-opacity:1" id="path4250" d="m 194.85572,602.36214 194.85572,-112.5 0,225 -194.85572,112.50001 z"/><path style="fill:#000;fill-opacity:1;fill-rule:evenodd;stroke:none;stroke-width:6.25;stroke-linecap:butt;stroke-linejoin:miter;stroke-miterlimit:4;stroke-dasharray:none;stroke-opacity:1" id="path4207" d="m 231.8783,822.0184 157.83314,-91.12501 157.83313,91.12501 -31.56663,18.225 -110.48319,-63.7875 -31.56662,18.225 94.69987,54.675 -31.56662,18.225 -94.69989,-54.675 -63.13325,36.45 z"/><path style="fill:#000;fill-opacity:1;fill-rule:evenodd;stroke:none;stroke-width:6.25;stroke-linecap:butt;stroke-linejoin:miter;stroke-miterlimit:4;stroke-dasharray:none;stroke-opacity:1" id="path4209" d="m 350.45133,548.55975 c -11.63922,-0.15751 -29.80748,5.62411 -58.16813,21.99814 l -78.91646,45.5625 0,182.25 78.91646,-45.5625 c 62.09049,-35.84801 81.06938,-63.85114 78.91647,-100.2375 -0.9738,-16.45825 -31.56627,-18.225 -31.56627,-18.225 0,0 31.56627,-33.63059 31.56627,-54.675 0,-11.6754 -1.7e-4,-30.82988 -20.74834,-31.11064 z m -35.06731,46.79331 c 8.46582,-0.37598 8.46546,11.65483 8.46546,11.65483 0,0 8.1e-4,18.225 -15.78235,27.3375 l -47.3502,27.3375 0,-36.45 47.3502,-27.3375 c 2.95937,-1.7086 5.36324,-2.45557 7.31689,-2.54233 z m 0.41291,73.29393 c 8.46581,-0.37599 8.46545,11.6564 8.46545,11.6564 0,0 -6.1e-4,18.225 -15.78392,27.3375 l -47.3502,27.3375 0,-36.45 47.3502,-27.3375 c 2.95937,-1.70858 5.36483,-2.45714 7.31847,-2.5439 z"/><g transform="matrix(2.4123916,1.5733218,0,2.7250733,116.15669,-898.13265)" style="font-style:normal;font-weight:400;font-size:40px;line-height:125%;font-family:sans-serif;letter-spacing:0;word-spacing:0;fill:#000;fill-opacity:1;stroke:none;stroke-width:1.97447681;stroke-linecap:butt;stroke-linejoin:miter;stroke-miterlimit:4;stroke-dasharray:none;stroke-opacity:1" id="flowRoot4154-7"><path d="m 155.89355,491.96802 0,-13.40332 30.76172,0 0,27.46582 q -8.833,6.0205 -15.64453,8.21777 -6.76758,2.15332 -16.08398,2.15332 -11.46973,0 -18.72071,-3.91113 -7.20703,-3.91113 -11.20605,-11.64551 -3.95508,-7.73437 -3.95508,-17.75391 0,-10.54687 4.35059,-18.32519 4.35058,-7.82227 12.74414,-11.86524 6.54785,-3.12011 17.62207,-3.12011 10.67871,0 15.95215,1.93359 5.31738,1.93359 8.78906,6.02051 3.51562,4.04297 5.27344,10.2832 l -19.2041,3.42774 q -1.18653,-3.64746 -4.04297,-5.58106 -2.8125,-1.93359 -7.20703,-1.93359 -6.54786,0 -10.45899,4.57031 -3.86719,4.52637 -3.86719,14.37012 0,10.45898 3.91114,14.9414 3.95507,4.48243 10.98632,4.48243 3.33985,0 6.37207,-0.9668 3.03223,-0.9668 6.94336,-3.2959 l 0,-6.06445 -13.31543,0 z" style="font-style:normal;font-variant:normal;font-weight:900;font-stretch:normal;font-size:90px;line-height:125%;font-family:'Arial Black';-inkscape-font-specification:'Arial Black, Heavy';text-align:start;writing-mode:lr-tb;text-anchor:start;stroke:none;stroke-width:1.97447681;stroke-linejoin:miter;stroke-miterlimit:4;stroke-dasharray:none;stroke-opacity:1" id="path4172-9"/></g></g></svg>